<svg xmlns="http://www.w3.org/2000/svg" xmlns:xlink="http://www.w3.org/1999/xlink" width="397px" height="414px" viewBox="3 2 398 414" preserveAspectRatio="xMidYMid meet" ><rect id="svgEditorBackground" x="0" y="0" width="1140" height="1080" style="fill:none; stroke: none;"/><defs id="svgEditorDefs"><marker id="arrow15-12-right" markerHeight="12" markerUnits="strokeWidth" markerWidth="15" orient="auto" refX="-3" refY="0" viewBox="-15 -5 20 20"><path d="M -15 -5 L 0 0 L -15 5 z" fill="black"/></marker><marker id="arrow15-12-left" markerHeight="12" markerUnits="strokeWidth" markerWidth="15" orient="auto" refX="3" refY="0" viewBox="0 -5 20 20"><path d="M 15 -5 L 0 0 L 15 5 z" fill="black"/></marker><marker id="arrow20-16-left" markerHeight="16" markerUnits="strokeWidth" markerWidth="20" orient="auto" refX="3" refY="0" viewBox="0 -5 20 20"><path d="M 15 -5 L 0 0 L 15 5 z" fill="black"/></marker></defs><g id="e18_group"><circle id="e1_circle" cx="428.8643493652344" cy="322.5411682128906" style="fill:none;stroke:black;stroke-width:3px;" r="150" transform="matrix(1.26519 0 0 1.26519 -339.76 -207.733)"/><line id="e2_line" x1="10" y1="204" x2="392" y2="205" style="stroke:black;fill:none;stroke-width:1px;"/><line id="e3_line" x1="203" y1="11" x2="198" y2="333" style="stroke:black;fill:none;stroke-width:1px;"/><line id="e4_line" x1="202" y1="204" x2="68" y2="333" style="stroke:black;fill:none;stroke-width:1px;marker-start:url(#arrow20-16-left);marker-end:url(#arrow15-12-right);"/><line id="e5_line" x1="69" y1="333" x2="339" y2="332" style="stroke:black;fill:none;stroke-width:1px;"/><path d="M176,228a15.896737,15.896737,0,0,0,27,9" style="fill:none;stroke:black;stroke-width:1px;" id="e6_circleArc"/><text style="fill:black;font-family:Palatino Linotype;font-size:20px;" x="186" y="233" id="e7_texte">𝜃</text><text style="fill:black;font-family:Arial;font-size:20px;" x="203" y="372" id="e8_texte">ℎ</text><line id="e9_line" x1="198" y1="333" x2="197" y2="389" style="stroke:black;fill:none;stroke-width:1px;marker-start:url(#arrow15-12-left);marker-end:url(#arrow15-12-right);"/><text style="fill:black;font-family:Arial;font-size:20px;" x="131" y="346" id="e10_texte">𝑤</text><text style="fill:black;font-family:Arial;font-size:20px;" x="132" y="264" id="e11_texte">𝑟</text><text style="fill:black;font-family:Arial;font-size:20px;" x="201" y="291" id="e12_texte">(𝑟−ℎ)</text><text style="fill:black;font-family:Arial;font-size:20px;" x="54" y="352" id="e13_texte">𝐴</text><text style="fill:black;font-family:Arial;font-size:20px;" x="349" y="344" id="e14_texte">𝐵</text><text style="fill:black;font-family:Arial;font-size:20px;" x="202" y="194" id="e15_texte">𝑂</text><text style="fill:black;font-family:Arial;font-size:20px;" x="182" y="329" id="e16_texte">𝐶</text><text style="fill:black;font-family:Arial;font-size:20px;" x="189" y="413" id="e17_texte">𝐷</text></g></svg>